{"title":"World Trade Center 2006  2014 720p Esub BluRay Dual Audio Englis","magnet":"magnet:?xt=urn:btih:933cc83e9514b51166641f982057618520063793&dn=World+Trade+Center+2006++2014+720p+Esub+BluRay+Dual+Audio+Englis&tr=udp%3A%2F%2Ftracker.leechers-paradise.org%3A6969&tr=udp%3A%2F%2Fzer0day.ch%3A1337&tr=udp%3A%2F%2Fopen.demonii.com%3A1337&tr=udp%3A%2F%2Ftracker.coppersurfer.tk%3A6969&tr=udp%3A%2F%2Fexodus.desync.com%3A6969","uploader":"jatt13","categoryP":"video","categoryS":"hd___movies","size":"935313104","seeders":"1","leechers":"30","description":"[center][img]http://i.imgur.com/EDLlfJF.jpg[/img]\r\nGeneral\r\nUnique ID                      : 172981377539239557545083990678521.............\r\nComplete name                  : F:DUB2006World Trade Center 2006  2014 720p Esub BluRay Dual Audio English Hindi GOPISAHI\r\nFormat                         : Matroska\r\nFormat version                 : Version 4 / Version 2\r\nFile size                      : 892 MiB\r\nDuration                       : 2 h 3 min\r\nOverall bit rate               : 1 007 kb/s\r\nMovie name                     : World Trade Center 2006  \r\n\r\nVideo\r\nFormat                         : AVC\r\nCodec ID                       : V_MPEG4/ISO/AVC\r\nDuration                       : 2 h 3 min\r\nBit rate                       : 828 kb/s\r\nWidth                          : 1 280 pixels\r\nHeight                         : 720 pixels\r\nDisplay aspect ratio           : 16:9\r\nFrame rate mode                : Constant\r\nFrame rate                     : 25.000 FPS\r\nStream size                    : 734 MiB (82%)\r\nWriting library                : x264 core 112\r\n\r\nAudio #1\r\nFormat                         : AAC\r\nDuration                       : 2 h 3 min\r\nBit rate                       : 87.1 kb/s\r\nChannel(s)                     : 6 channels\r\nChannel positions              : Front: L C R, Side: L R, LFE\r\nSampling rate                  : 44.1 kHz\r\nFrame rate                     : 43.066 FPS (1024 SPF)\r\nStream size                    : 77.2 MiB (9%)\r\nLanguage                       : English\r\n\r\nAudio #2\r\nFormat                         : AAC\r\nDuration                       : 2 h 3 min\r\nBit rate                       : 88.8 kb/s\r\nChannel(s)                     : 6 channels\r\nChannel positions              : Front: L C R, Side: L R, LFE\r\nSampling rate                  : 44.1 kHz\r\nFrame rate                     : 43.066 FPS (1024 SPF)\r\nStream size                    : 78.7 MiB (9%)\r\nLanguage                       : Hindio\r\n\r\nText\r\nLanguage                       : English\r\n[img]http://i.imgur.com/YenWzgp.jpg[/img]\r\n[img]http://i.imgur.com/xAxCYIR.jpg[/img]\r\n[img]http://i.imgur.com/BpCNGdM.jpg[/img]\r\n[img]http://i.imgur.com/YenWzgp.jpg[/img][/center]","last_updated":"2017-08-26T12:00:44.105Z","parsed":{"xt":"urn:btih:933cc83e9514b51166641f982057618520063793","dn":"World Trade Center 2006  2014 720p Esub BluRay Dual Audio Englis","tr":["udp://exodus.desync.com:6969","udp://open.demonii.com:1337","udp://tracker.coppersurfer.tk:6969","udp://tracker.leechers-paradise.org:6969","udp://zer0day.ch:1337"],"infoHash":"933cc83e9514b51166641f982057618520063793","infoHashBuffer":{"type":"Buffer","data":[147,60,200,62,149,20,181,17,102,100,31,152,32,87,97,133,32,6,55,147]},"name":"World Trade Center 2006  2014 720p Esub BluRay Dual Audio Englis","announce":["udp://exodus.desync.com:6969","udp://open.demonii.com:1337","udp://tracker.coppersurfer.tk:6969","udp://tracker.leechers-paradise.org:6969","udp://zer0day.ch:1337"],"urlList":[]}}